<svg width="19" height="19" viewBox="0 0 19 19" fill="none" xmlns="http://www.w3.org/2000/svg">
<path fill-rule="evenodd" clip-rule="evenodd" d="M9.1858 14.7531C9.2871 14.8139 9.3954 14.8408 9.50065 14.8395C9.6059 14.8408 9.7142 14.8139 9.81551 14.7531L10.7143 14.2138C12.4769 13.1562 14.6326 12.9835 16.5412 13.7469C17.2452 14.0286 18.0111 13.51 18.0111 12.7518V3.52181C18.0111 3.06427 17.7325 2.65282 17.3077 2.4829C14.8495 1.49962 12.073 1.7221 9.8027 3.08425L9.50065 3.26548L9.19861 3.08425C6.92834 1.7221 4.15181 1.49962 1.69362 2.4829C1.2688 2.65282 0.990234 3.06427 0.990234 3.52181V12.7518C0.990234 13.51 1.75609 14.0286 2.46013 13.7469C4.36869 12.9835 6.5244 13.1562 8.28703 14.2138L9.1858 14.7531ZM2.17773 3.56839V12.5829C4.39107 11.7532 6.86582 11.9762 8.898 13.1956L8.9069 13.2009V4.29408L8.58764 4.10253C6.64886 2.93926 4.28067 2.74266 2.17773 3.56839ZM10.1033 13.1956L10.0944 13.2009V4.29408L10.4137 4.10253C12.3524 2.93926 14.7206 2.74266 16.8236 3.56839V12.5829C14.6102 11.7532 12.1355 11.9762 10.1033 13.1956Z" fill="white"/>
<path d="M7.34349 15.0747C5.74127 14.14 3.76003 14.14 2.15782 15.0747L2.07648 15.1221C1.79323 15.2874 1.69755 15.6509 1.86278 15.9342C2.02801 16.2174 2.39157 16.3131 2.67482 16.1479L2.75616 16.1004C3.98864 15.3815 5.51266 15.3815 6.74514 16.1004L7.60589 16.6025C8.77674 17.2855 10.2246 17.2855 11.3954 16.6025L12.2562 16.1004C13.4886 15.3815 15.0127 15.3815 16.2451 16.1004L16.3265 16.1479C16.6097 16.3131 16.9733 16.2174 17.1385 15.9342C17.3037 15.6509 17.2081 15.2874 16.9248 15.1221L16.8435 15.0747C15.2413 14.14 13.26 14.14 11.6578 15.0747L10.7971 15.5768C9.99596 16.0441 9.00534 16.0441 8.20423 15.5768L7.34349 15.0747Z" fill="white"/>
</svg>
