<svg width="100" height="100" viewBox="0 0 100 100" fill="none" xmlns="http://www.w3.org/2000/svg">
<path d="M80 30C80 46.5685 66.5685 60 50 60C33.4315 60 20 46.5685 20 30C20 13.4315 33.4315 0 50 0C66.5685 0 80 13.4315 80 30Z" fill="#1A1A1A"/>
<path d="M73.5479 55.8936C77.8547 58.1928 81.8402 61.1293 85.3555 64.6445C94.7323 74.0213 100 86.7392 100 100H0C2.00233e-06 86.7392 5.26771 74.0213 14.6445 64.6445C18.1596 61.1295 22.1446 58.1927 26.4512 55.8936C32.6685 61.5512 40.9315 65 50 65C59.0682 65 67.3306 61.5509 73.5479 55.8936Z" fill="#1A1A1A"/>
</svg>
