<svg width="19" height="19" viewBox="0 0 19 19" fill="none" xmlns="http://www.w3.org/2000/svg">
<path fill-rule="evenodd" clip-rule="evenodd" d="M8.30073 3.25748C8.83465 2.33735 10.1634 2.33735 10.6973 3.25748L12.3324 6.07531C12.4831 6.33504 12.7436 6.51229 13.0405 6.55713L15.7557 6.96722C16.9392 7.14598 17.3544 8.64031 16.4326 9.40394L14.4543 11.0429C14.1767 11.273 14.0461 11.6359 14.1136 11.9901L14.6677 14.9002C14.8848 16.0402 13.6881 16.9259 12.6613 16.3853L9.96008 14.963C9.67149 14.811 9.32656 14.811 9.03798 14.963L6.33678 16.3853C5.30998 16.9259 4.11328 16.0402 4.33035 14.9002L4.8845 11.9901C4.95195 11.6359 4.82139 11.273 4.54372 11.0429L2.56542 9.40394C1.6437 8.6403 2.05885 7.14598 3.24239 6.96722L5.95753 6.55713C6.25445 6.51229 6.51495 6.33504 6.66566 6.07531L8.30073 3.25748ZM9.67021 3.85347C9.59394 3.72202 9.40411 3.72202 9.32784 3.85347L7.69277 6.67129C7.3612 7.24271 6.78811 7.63265 6.13487 7.73131L3.41974 8.1414C3.25066 8.16694 3.19135 8.38042 3.32303 8.48951L5.30132 10.1285C5.9122 10.6346 6.19944 11.4329 6.05104 12.2122L5.49689 15.1224C5.46588 15.2852 5.63684 15.4117 5.78352 15.3345L8.48472 13.9122C9.11961 13.5779 9.87845 13.5779 10.5133 13.9122L13.2145 15.3345C13.3612 15.4117 13.5322 15.2852 13.5012 15.1224L12.947 12.2122C12.7986 11.4329 13.0859 10.6346 13.6967 10.1285L15.675 8.48951C15.8067 8.38041 15.7474 8.16694 15.5783 8.1414L12.8632 7.73132C12.2099 7.63265 11.6369 7.24271 11.3053 6.6713L9.67021 3.85347Z" fill="white"/>
</svg>
