<svg width="19" height="19" viewBox="0 0 19 19" fill="none" xmlns="http://www.w3.org/2000/svg">
<path fill-rule="evenodd" clip-rule="evenodd" d="M6.13607 5.93783C6.13607 4.07962 7.64244 2.57324 9.50065 2.57324C11.3589 2.57324 12.8652 4.07962 12.8652 5.93783C12.8652 7.79603 11.3589 9.30241 9.50065 9.30241C7.64244 9.30241 6.13607 7.79603 6.13607 5.93783ZM9.50065 3.76074C8.29828 3.76074 7.32357 4.73546 7.32357 5.93783C7.32357 7.1402 8.29828 8.11491 9.50065 8.11491C10.703 8.11491 11.6777 7.1402 11.6777 5.93783C11.6777 4.73546 10.703 3.76074 9.50065 3.76074Z" fill="white"/>
<path fill-rule="evenodd" clip-rule="evenodd" d="M6.33398 11.6774C5.35023 11.6774 4.55273 12.4749 4.55273 13.4587V14.3994C4.55273 14.4137 4.56312 14.4259 4.57725 14.4282C7.83793 14.9606 11.1634 14.9606 14.424 14.4282C14.4382 14.4259 14.4486 14.4137 14.4486 14.3994V13.4587C14.4486 12.4749 13.6511 11.6774 12.6673 11.6774H12.3975C12.3766 11.6774 12.3559 11.6807 12.336 11.6872L11.6508 11.9109C10.2537 12.3671 8.74763 12.3671 7.35047 11.9109L6.66527 11.6872C6.64544 11.6807 6.6247 11.6774 6.60384 11.6774H6.33398ZM3.36523 13.4587C3.36523 11.8191 4.69439 10.4899 6.33398 10.4899H6.60384C6.7499 10.4899 6.89503 10.513 7.03387 10.5583L7.71907 10.7821C8.87672 11.1601 10.1246 11.1601 11.2822 10.7821L11.9674 10.5583C12.1063 10.513 12.2514 10.4899 12.3975 10.4899H12.6673C14.3069 10.4899 15.6361 11.8191 15.6361 13.4587V14.3994C15.6361 14.9957 15.2039 15.5041 14.6154 15.6002C11.228 16.1533 7.77331 16.1533 4.38591 15.6002C3.79739 15.5041 3.36523 14.9957 3.36523 14.3994V13.4587Z" fill="white"/>
</svg>
